<?xml version="1.0" encoding="iso-8859-1"?>
<!-- Generator: Adobe Illustrator 19.0.0, SVG Export Plug-In . SVG Version: 6.00 Build 0)  -->
<svg version="1.1" id="Layer_1" xmlns="http://www.w3.org/2000/svg" xmlns:xlink="http://www.w3.org/1999/xlink" x="0px" y="0px"
	 viewBox="0 0 484.8 484.8" style="enable-background:new 0 0 484.8 484.8;" xml:space="preserve">
<g>
	<path style="fill:#F7910B;" d="M484.8,286.4c0,104-95.2,188-242.4,188S0,390.4,0,286.4s95.2-260,242.4-260S484.8,182.4,484.8,286.4
		z"/>
	<path style="fill:#F7910B;" d="M484.8,286.4c0,104-95.2,156-242.4,156S0,390.4,0,286.4s95.2-276,242.4-276S484.8,182.4,484.8,286.4
		z"/>
</g>
<g>
	<path style="fill:#F9A908;" d="M242.4,10.4c147.2,0,242.4,172,242.4,276s-95.2,156-242.4,156"/>
	<path style="fill:#F9A908;" d="M484.8,286.4c0,104-95.2,156-242.4,156S0,390.4,0,286.4s95.2-260,242.4-260S484.8,182.4,484.8,286.4
		z"/>
</g>
<path style="fill:#F9C55D;" d="M0,286.4c0-104,95.2-260,242.4-260"/>
<path style="fill:#F7910B;" d="M242.4,26.4c147.2,0,242.4,156,242.4,260s-95.2,188-242.4,188"/>
<g>
	<path style="fill:#EA7103;" d="M242.4,26.4c147.2,0,242.4,156,242.4,260"/>
	<circle style="fill:#EA7103;" cx="159.2" cy="192" r="25.6"/>
	<circle style="fill:#EA7103;" cx="325.6" cy="192" r="25.6"/>
</g>
<circle style="fill:#1E4784;" cx="159.2" cy="184.8" r="25.6"/>
<path style="fill:#00233F;" d="M159.2,159.2c14.4,0,25.6,11.2,25.6,25.6s-11.2,25.6-25.6,25.6"/>
<circle style="fill:#1E4784;" cx="325.6" cy="184.8" r="25.6"/>
<path style="fill:#00233F;" d="M325.6,159.2c14.4,0,25.6,11.2,25.6,25.6s-11.2,25.6-25.6,25.6"/>
<path style="fill:#19BCA4;" d="M158.4,122.4c-1.6-4,6.4-4.8,16-8.8c8.8-4,16-9.6,17.6-5.6s-4.8,9.6-13.6,13.6
	C168.8,125.6,160,125.6,158.4,122.4z"/>
<path style="fill:#109DA0;" d="M158.4,122.4c-1.6-4,6.4-4.8,16-8.8c8.8-4,16-9.6,17.6-5.6"/>
<path style="fill:#19BCA4;" d="M326.4,124.8c1.6-4-6.4-4.8-16-8.8c-8.8-4-16-9.6-17.6-5.6s4.8,9.6,13.6,13.6
	C316,128,324.8,128,326.4,124.8z"/>
<path style="fill:#109DA0;" d="M326.4,124.8c1.6-4-6.4-4.8-16-8.8c-8.8-4-16-9.6-17.6-5.6"/>
<path style="fill:#F9C55D;" d="M208.8,232.8c0,9.6-28,5.6-62.4,5.6S84,243.2,84,232.8c0-9.6,28-17.6,62.4-17.6
	C180.8,215.2,208.8,223.2,208.8,232.8z"/>
<path style="fill:#F9A908;" d="M400.8,232.8c0,9.6-28,5.6-62.4,5.6s-62.4,4.8-62.4-5.6c0-9.6,28-17.6,62.4-17.6
	S400.8,223.2,400.8,232.8z"/>
<g>
	<circle style="fill:#F7910B;" cx="68.8" cy="262.4" r="4.8"/>
	<circle style="fill:#F7910B;" cx="32.8" cy="278.4" r="8.8"/>
	<circle style="fill:#F7910B;" cx="56.8" cy="246.4" r="1.6"/>
	<circle style="fill:#F7910B;" cx="93.6" cy="260.8" r="1.6"/>
</g>
<g>
	<circle style="fill:#F9A908;" cx="407.2" cy="264.8" r="6.4"/>
	<circle style="fill:#F9A908;" cx="427.2" cy="276" r="1.6"/>
	<circle style="fill:#F9A908;" cx="384.8" cy="205.6" r="2.4"/>
	<circle style="fill:#F9A908;" cx="380.8" cy="298.4" r="10.4"/>
	<circle style="fill:#F9A908;" cx="438.4" cy="299.2" r="4.8"/>
</g>
<g>
	<circle style="fill:#F7910B;" cx="60.8" cy="294.4" r="4"/>
	<circle style="fill:#F7910B;" cx="67.2" cy="227.2" r="3.2"/>
</g>
<g>
	<circle style="fill:#F9A908;" cx="24.8" cy="116.8" r="8.8"/>
	<circle style="fill:#F9A908;" cx="50.4" cy="88.8" r="4.8"/>
	<circle style="fill:#F9A908;" cx="460" cy="136" r="1.6"/>
	<circle style="fill:#F9A908;" cx="453.6" cy="112.8" r="6.4"/>
	<circle style="fill:#F9A908;" cx="474.4" cy="116.8" r="4"/>
	<circle style="fill:#F9A908;" cx="34.4" cy="140.8" r="4.8"/>
</g>
<path style="fill:#F7910B;" d="M301.6,352c0,20.8-26.4,37.6-59.2,37.6s-59.2-16.8-59.2-37.6"/>
<path style="fill:#ED7E11;" d="M184.8,268.8c0-12,25.6-21.6,57.6-21.6s57.6,9.6,57.6,21.6"/>
<g>
	<path style="fill:#02243E;" d="M341.6,306.4c-2.4,0-4.8-0.8-6.4-2.4c-15.2-15.2-38.4-31.2-60-31.2l0,0c-10.4,0-19.2,4-26.4,11.2
		c-3.2,3.2-8.8,3.2-12.8,0c-3.2-3.2-3.2-8.8,0-12.8c11.2-11.2,24-16.8,39.2-16.8l0,0c34.4,0,64,28,72.8,36.8c3.2,3.2,3.2,8.8,0,12.8
		C346.4,305.6,344,306.4,341.6,306.4z"/>
	<path style="fill:#02243E;" d="M143.2,306.4c-2.4,0-4.8-0.8-6.4-2.4c-3.2-3.2-3.2-8.8,0-12.8c8.8-8.8,38.4-36.8,72.8-36.8l0,0
		c15.2,0,28,5.6,39.2,16.8c3.2,3.2,3.2,8.8,0,12.8c-3.2,3.2-8.8,3.2-12.8,0c-7.2-8-16-11.2-26.4-11.2l0,0c-21.6,0-45.6,16-60,31.2
		C148,305.6,145.6,306.4,143.2,306.4z"/>
	<path style="fill:#02243E;" d="M339.2,324.8c-4.8,0-8.8-4-8.8-8.8c0-16.8,13.6-30.4,29.6-30.4c4.8,0,8.8,4,8.8,8.8s-4,8.8-8.8,8.8
		c-6.4,0-12,5.6-12,12.8C348,320.8,344,324.8,339.2,324.8z"/>
	<path style="fill:#02243E;" d="M145.6,324.8c-4.8,0-8.8-4-8.8-8.8c0-7.2-5.6-12.8-12-12.8c-4.8,0-8.8-4-8.8-8.8s4-8.8,8.8-8.8
		c16,0,29.6,13.6,29.6,30.4C154.4,320.8,150.4,324.8,145.6,324.8z"/>
</g>
<path style="fill:#F9A908;" d="M263.2,281.6c1.6-5.6,16.8-4.8,32.8,1.6s27.2,15.2,25.6,20.8c-1.6,5.6-15.2,0-31.2-5.6
	C274.4,292,260.8,287.2,263.2,281.6z"/>
<path style="fill:#F9C55D;" d="M220,281.6c-1.6-5.6-16.8-4.8-32.8,1.6S160,298.4,161.6,304c1.6,5.6,15.2,0,31.2-5.6
	C208.8,292,221.6,287.2,220,281.6z"/>
<g>
</g>
<g>
</g>
<g>
</g>
<g>
</g>
<g>
</g>
<g>
</g>
<g>
</g>
<g>
</g>
<g>
</g>
<g>
</g>
<g>
</g>
<g>
</g>
<g>
</g>
<g>
</g>
<g>
</g>
</svg>
