<?xml version="1.0" encoding="iso-8859-1"?>
<!-- Generator: Adobe Illustrator 19.0.0, SVG Export Plug-In . SVG Version: 6.00 Build 0)  -->
<svg version="1.1" id="Layer_1" xmlns="http://www.w3.org/2000/svg" xmlns:xlink="http://www.w3.org/1999/xlink" x="0px" y="0px"
	 viewBox="0 0 512 512" style="enable-background:new 0 0 512 512;" xml:space="preserve">
<path d="M308.278,474.274h-16.168v-16.168h16.168V474.274z M264.084,474.274h-16.168v-16.168h16.168V474.274z M219.891,474.274
	h-16.168v-16.168h16.168V474.274z"/>
<polygon style="fill:#3D6DEB;" points="309.895,212.884 503.916,212.884 503.916,406.905 426.969,406.905 375.927,453.206 
	375.927,406.905 309.895,406.905 "/>
<polygon points="466.189,369.179 347.621,369.179 347.621,333.104 376.112,306.988 387.037,318.905 363.789,340.216 363.789,353.01 
	450.021,353.01 450.021,340.216 426.773,318.905 437.699,306.988 466.189,333.104 "/>
<path d="M447.203,233.721h-16.168c0,4.669-0.981,7.973-2.917,9.82c-4.087,3.901-26.872,2.828-29.195,2.828v16.168
	c1.943,0,19.701,0.397,21.994,0.168v17.098c0,7.974-6.488,14.462-14.462,14.462h-0.179c-7.974,0-14.462-6.488-14.462-14.462v-16.797
	h-16.168v16.797c0,16.89,13.741,30.631,30.631,30.631h0.179c16.89,0,30.631-13.741,30.631-30.631v-22.73
	c0.755-0.563,1.491-1.165,2.192-1.835C444.537,250.224,447.203,242.983,447.203,233.721z"/>
<g>
	<polygon style="fill:#FFFFFF;" points="490.442,256 474.274,256 474.274,242.526 460.8,242.526 460.8,226.358 490.442,226.358 	"/>
	<polygon style="fill:#FFFFFF;" points="353.01,393.432 323.368,393.432 323.368,363.789 339.537,363.789 339.537,377.263 
		353.01,377.263 	"/>
</g>
<polygon style="fill:#A9A8AE;" points="202.105,170.846 8.084,170.846 8.084,364.867 85.031,364.867 136.073,411.168 
	136.073,364.867 202.105,364.867 "/>
<polygon points="164.379,327.141 45.811,327.141 45.811,291.066 74.301,264.95 85.227,276.867 61.979,298.178 61.979,310.973 
	148.211,310.973 148.211,298.178 124.962,276.867 135.888,264.95 164.379,291.066 "/>
<path d="M145.393,191.683h-16.168c0,4.669-0.981,7.973-2.917,9.82c-4.088,3.9-26.873,2.828-29.196,2.828V220.5
	c1.943,0,19.701,0.397,21.996,0.168v17.098c0,7.974-6.488,14.462-14.462,14.462h-0.18c-7.974,0-14.462-6.488-14.462-14.462v-16.797
	H73.835v16.797c0.001,16.89,13.742,30.631,30.632,30.631h0.18c16.89,0,30.631-13.741,30.631-30.631v-22.73
	c0.755-0.564,1.491-1.165,2.194-1.835C142.727,208.186,145.393,200.945,145.393,191.683z"/>
<polygon style="fill:#FFFFFF;" points="51.2,351.394 21.558,351.394 21.558,321.752 37.726,321.752 37.726,335.225 51.2,335.225 "/>
<polygon style="fill:#F4D853;" points="353.01,45.811 158.989,45.811 158.989,239.832 225.971,239.832 251.22,307.196 
	276.468,239.832 353.01,239.832 "/>
<polygon points="315.284,202.105 196.716,202.105 196.716,166.03 225.207,139.914 236.132,151.831 212.884,173.142 212.884,185.937 
	299.116,185.937 299.116,173.142 275.868,151.831 286.793,139.914 315.284,166.03 "/>
<path d="M296.298,66.647H280.13c0,4.669-0.981,7.973-2.917,9.82c-4.086,3.901-26.872,2.828-29.195,2.828v16.168
	c1.943,0,19.702,0.397,21.996,0.168v17.098c0,7.974-6.488,14.462-14.462,14.462h-0.18c-7.974,0-14.462-6.488-14.462-14.462V95.933
	h-16.168v16.797c0,16.89,13.741,30.631,30.631,30.631h0.18c16.888,0,30.631-13.741,30.631-30.631V90
	c0.755-0.563,1.491-1.165,2.192-1.835C293.631,83.15,296.298,75.91,296.298,66.647z"/>
<g>
	<polygon style="fill:#FFFFFF;" points="339.537,88.926 323.368,88.926 323.368,75.453 309.895,75.453 309.895,59.284 
		339.537,59.284 	"/>
	<polygon style="fill:#FFFFFF;" points="202.105,226.358 172.463,226.358 172.463,196.716 188.632,196.716 188.632,210.189 
		202.105,210.189 	"/>
</g>
<path d="M361.095,204.8V37.726H150.905v125.036H0v210.189h81.91l62.247,56.466v-56.466h66.032V247.916h10.179l30.852,82.313
	l30.853-82.313h19.738v167.074h66.033v56.466l62.246-56.466H512V204.8H361.095z M194.021,356.783h-66.032v36.136l-39.838-36.136
	H16.168V178.931h134.737v68.985h43.116V356.783z M270.865,231.747l-19.646,52.415l-19.646-52.415h-64.5V53.895h177.853v177.853
	H270.865z M495.832,398.821H423.85l-39.838,36.136v-36.136h-66.033V247.916h43.116v-26.947h134.737V398.821z"/>
<g>
</g>
<g>
</g>
<g>
</g>
<g>
</g>
<g>
</g>
<g>
</g>
<g>
</g>
<g>
</g>
<g>
</g>
<g>
</g>
<g>
</g>
<g>
</g>
<g>
</g>
<g>
</g>
<g>
</g>
</svg>
